<?xml version="1.0"?>
<svg xmlns="http://www.w3.org/2000/svg" xmlns:xlink="http://www.w3.org/1999/xlink" version="1.1" id="Capa_1" x="0px" y="0px" viewBox="0 0 512 512" style="enable-background:new 0 0 512 512;" xml:space="preserve" width="512px" height="512px" class=""><g><g>
	<g>
		<path d="M426.667,42.667h-64V21.333C362.667,9.536,353.131,0,341.333,0H170.667c-11.797,0-21.333,9.536-21.333,21.333v21.333h-64    C73.536,42.667,64,52.203,64,64v426.667C64,502.464,73.536,512,85.333,512h341.333c11.797,0,21.333-9.536,21.333-21.333V64    C448,52.203,438.464,42.667,426.667,42.667z M192,64V42.667h128V64v21.333H192V64z M170.667,192H192    c11.797,0,21.333,9.536,21.333,21.333c0,11.797-9.536,21.333-21.333,21.333h-21.333c-11.797,0-21.333-9.536-21.333-21.333    C149.333,201.536,158.869,192,170.667,192z M170.667,277.333H256c11.797,0,21.333,9.536,21.333,21.333    c0,11.797-9.536,21.333-21.333,21.333h-85.333c-11.797,0-21.333-9.536-21.333-21.333    C149.333,286.869,158.869,277.333,170.667,277.333z M213.333,405.333h-42.667c-11.797,0-21.333-9.536-21.333-21.333    c0-11.797,9.536-21.333,21.333-21.333h42.667c11.797,0,21.333,9.536,21.333,21.333    C234.667,395.797,225.131,405.333,213.333,405.333z M341.333,405.333h-64C265.536,405.333,256,395.797,256,384    c0-11.797,9.536-21.333,21.333-21.333h64c11.797,0,21.333,9.536,21.333,21.333C362.667,395.797,353.131,405.333,341.333,405.333z     M341.333,320H320c-11.797,0-21.333-9.536-21.333-21.333c0-11.797,9.536-21.333,21.333-21.333h21.333    c11.797,0,21.333,9.536,21.333,21.333C362.667,310.464,353.131,320,341.333,320z M341.333,234.667H256    c-11.797,0-21.333-9.536-21.333-21.333c0-11.797,9.536-21.333,21.333-21.333h85.333c11.797,0,21.333,9.536,21.333,21.333    C362.667,225.131,353.131,234.667,341.333,234.667z" data-original="#000000" class="active-path" data-old_color="#000000" fill="#ADB6C6"/>
	</g>
</g></g> </svg>
