<?xml version="1.0"?>
<svg xmlns="http://www.w3.org/2000/svg" xmlns:xlink="http://www.w3.org/1999/xlink" version="1.1" id="Layer_1" x="0px" y="0px" viewBox="0 0 512 512" style="enable-background:new 0 0 512 512;" xml:space="preserve" width="512px" height="512px" class=""><g><g>
	<g>
		<path d="M303.628,47.628C303.628,21.323,282.304,0,256,0s-47.628,21.323-47.628,47.628H136.93v71.442h238.14V47.628H303.628z" data-original="#000000" class="active-path" data-old_color="#000000" fill="#ADB6C6"/>
	</g>
</g><g>
	<g>
		<path d="M410.791,95.256v59.535H101.209V95.256H65.488V512h381.023V95.256H410.791z M226.233,458.419H119.07V351.256h107.163    V458.419z M226.233,315.535H119.07V208.372h107.163V315.535z M392.93,458.419H261.953v-35.721H392.93V458.419z M392.93,386.977    H261.953v-35.721H392.93V386.977z M392.93,315.535H261.953v-35.721H392.93V315.535z M392.93,244.093H261.953v-35.721H392.93    V244.093z" data-original="#000000" class="active-path" data-old_color="#000000" fill="#ADB6C6"/>
	</g>
</g></g> </svg>
