<?xml version="1.0"?>
<svg xmlns="http://www.w3.org/2000/svg" xmlns:xlink="http://www.w3.org/1999/xlink" version="1.1" id="Capa_1" x="0px" y="0px" viewBox="0 0 492 492" style="enable-background:new 0 0 492 492;" xml:space="preserve" width="512px" height="512px" class=""><g><g>
	<g>
		<g>
			<path d="M487,154H354h-1c-3.333,0-5-1.333-5-4V86c0-2.667-1.333-4-4-4H148c-2.667,0-4,1.333-4,4v64     c0,2.667-2,4-6,4H5c-3.333,0-5,1.667-5,5v70c0,4.667,1.667,7,5,7h215c1.333,0,2.667-0.833,4-2.5s2-3.167,2-4.5v-15c0-6,1-9,3-9     h34c2,0,3,3,3,9v15c0,1.333,0.667,2.833,2,4.5c1.334,1.667,2.667,2.5,4,2.5h215c3.333,0,5-2.333,5-7v-70     C492,155.667,490.333,154,487,154z M318,150c0,2.667-0.333,4-1,4H175c-0.667,0-1-1.333-1-4v-36l1-1h142c0.667,0,1,0.333,1,1V150z     " data-original="#010002" class="active-path" data-old_color="#010002" fill="#ADB6C6"/>
			<path d="M487,246H272c-1.333,0-2.667,1.167-4,3.5c-1.333,2.335-2,4.168-2,5.5v51l1-2c0,2-1.333,3-4,3h-34     c-2,0-3-0.333-3-1v-51c0-1.333-0.667-3.167-2-5.5c-1.334-2.333-2.667-3.5-4-3.5H5c-3.333,0-5,3-5,9v150c0,3.333,1.667,5,5,5h482     c3.333,0,5-1.667,5-5V255C492,249,490.333,246,487,246z" data-original="#010002" class="active-path" data-old_color="#010002" fill="#ADB6C6"/>
		</g>
	</g>
</g></g> </svg>
