<?xml version="1.0"?>
<svg xmlns="http://www.w3.org/2000/svg" xmlns:xlink="http://www.w3.org/1999/xlink" version="1.1" id="Capa_1" x="0px" y="0px" viewBox="0 0 488.1 488.1" style="enable-background:new 0 0 488.1 488.1;" xml:space="preserve" width="512px" height="512px" class=""><g><g>
	<g>
		<g>
			<path d="M476.4,325.9c-40.9-33.6-85-55.9-93.9-60.3c-1-0.5-1.6-1.5-1.6-2.6v-63.7c8-5.3,13.3-14.4,13.3-24.8v-66     c0-32.8-26.6-59.5-59.5-59.5h-7.1h-7.1c-32.8,0-59.5,26.6-59.5,59.5v66c0,10.3,5.3,19.4,13.3,24.8V263c0,1.1-0.6,2.2-1.6,2.6     c-4.6,2.2-18.3,9.1-36,19.8v8.7c18.4,9.8,53.9,30,87.2,57.4c12.7,10.5,20,25.9,20,42.5v1.9h144.2v-45.2     C488,341,483.8,331.9,476.4,325.9z" data-original="#000000" class="active-path" data-old_color="#000000" fill="#ADB6C6"/>
		</g>
		<g>
			<path d="M309.2,369.2c-40.9-33.6-85-55.9-93.9-60.3c-1-0.5-1.6-1.5-1.6-2.6v-63.7c8-5.3,13.3-14.4,13.3-24.8v-66     c0-32.8-26.6-59.5-59.5-59.5h-7.1h-7.1c-32.8,0-59.5,26.6-59.5,59.5v66c0,10.3,5.3,19.4,13.3,24.8v63.7c0,1.1-0.6,2.2-1.6,2.6     c-9,4.4-53.1,26.7-93.9,60.3C4.2,375.3,0,384.4,0,393.9v45.2h160.5H321v-45.2C320.8,384.4,316.6,375.3,309.2,369.2z" data-original="#000000" class="active-path" data-old_color="#000000" fill="#ADB6C6"/>
		</g>
	</g>
</g></g> </svg>
